# This file uses centimeters as units for non-parametric coordinates.

mtllib Banana_01.mtl
g default
v -10.378240 -23.125530 -2.530448
v 10.378240 -23.125530 -2.530448
v -8.149729 -15.365671 14.073657
v 8.149729 -15.365671 14.073657
v -7.788957 21.138566 14.073657
v 7.788957 21.138566 14.073657
v -9.793384 32.369880 -1.785324
v 9.793384 32.369880 -1.785324
v -2.298697 -42.244216 21.041977
v 2.298697 -42.244216 21.041977
v 2.122947 -39.079566 23.522777
v -2.122947 -39.079566 23.522777
v -5.620590 37.998077 22.975450
v 5.620590 37.998077 22.975450
v 6.843517 47.362209 12.143726
v -6.843517 47.362209 12.143726
v -2.210376 44.672042 25.768047
v 2.210376 44.672042 25.768047
v 2.210376 48.559587 23.328381
v -2.210376 48.559587 23.328381
v -2.210376 51.819228 35.254596
v 2.210376 51.819228 35.254596
v 2.210376 55.706773 32.814925
v -2.210376 55.706773 32.814925
v -8.149729 3.335867 11.740808
v -10.378240 3.278145 -7.808912
v 10.378240 3.278145 -7.808912
v 8.149729 3.335867 11.740808
v -6.524260 -29.066055 20.224729
v 6.524260 -29.066055 20.224729
v 7.355835 -36.343464 8.650915
v -7.355835 -36.343464 8.650915
v -3.911923 -34.243123 21.412936
v 3.911923 -34.243123 21.412936
v 4.348989 -39.123533 15.307264
v -4.348989 -39.123533 15.307264
v 0.000000 54.837691 35.363287
v -1.779398 48.624635 30.273478
v -1.779398 51.754180 28.309497
v 1.779398 51.754180 28.309497
v 1.779398 48.624635 30.273478
vt 0.375000 0.000000
vt 0.625000 0.000000
vt 0.375000 0.250000
vt 0.625000 0.250000
vt 0.375000 0.500000
vt 0.625000 0.500000
vt 0.375000 0.750000
vt 0.625000 0.750000
vt 0.375000 1.000000
vt 0.625000 1.000000
vt 0.875000 0.000000
vt 0.875000 0.250000
vt 0.125000 0.000000
vt 0.125000 0.250000
vt 0.375000 0.000000
vt 0.625000 0.000000
vt 0.625000 0.250000
vt 0.375000 0.250000
vt 0.375000 0.500000
vt 0.625000 0.500000
vt 0.625000 0.750000
vt 0.375000 0.750000
vt 0.375000 0.500000
vt 0.625000 0.500000
vt 0.625000 0.750000
vt 0.375000 0.750000
vt 0.375000 0.500000
vt 0.625000 0.500000
vt 0.625000 0.750000
vt 0.375000 0.750000
vt 0.250000 0.250000
vt 0.375000 0.375000
vt 0.250000 0.000000
vt 0.375000 0.875000
vt 0.625000 0.875000
vt 0.750000 0.000000
vt 0.625000 0.375000
vt 0.750000 0.250000
vt 0.375000 0.250000
vt 0.625000 0.250000
vt 0.625000 0.000000
vt 0.375000 0.000000
vt 0.375000 0.250000
vt 0.625000 0.250000
vt 0.625000 0.000000
vt 0.375000 0.000000
vt 0.500000 0.625000
vt 0.375000 0.500000
vt 0.375000 0.750000
vt 0.625000 0.750000
vt 0.625000 0.500000
vn 0.000000 -0.616943 0.787008
vn 0.000000 -0.616943 0.787008
vn 0.000000 -0.616943 0.787008
vn 0.000000 -0.616943 0.787008
vn 0.000000 0.123782 0.992310
vn 0.000000 0.123782 0.992310
vn 0.000000 0.002252 0.999997
vn 0.000000 0.002252 0.999997
vn 0.000000 0.009242 -0.999957
vn 0.000000 0.009242 -0.999957
vn 0.000000 -0.196035 -0.980597
vn 0.000000 -0.196035 -0.980597
vn 0.992804 0.019926 0.118084
vn 0.992942 0.009293 0.118234
vn 0.992943 0.009192 0.118235
vn 0.992804 0.019926 0.118084
vn -0.992942 0.009293 0.118234
vn -0.992804 0.019926 0.118084
vn -0.992804 0.019926 0.118084
vn -0.992943 0.009192 0.118235
vn 0.000000 -0.645840 -0.763473
vn 0.000000 -0.645840 -0.763473
vn 0.000000 -0.699370 -0.714759
vn 0.000000 -0.699370 -0.714759
vn 0.986206 -0.075411 0.147344
vn 0.986206 -0.075411 0.147344
vn 0.977704 -0.119146 0.172916
vn 0.979794 -0.109559 0.167334
vn 0.000000 0.409584 0.912273
vn 0.000000 0.409584 0.912273
vn 0.000000 0.383903 0.923374
vn 0.000000 0.383903 0.923374
vn -0.986206 -0.075411 0.147344
vn -0.986206 -0.075411 0.147344
vn -0.979794 -0.109559 0.167334
vn -0.977704 -0.119146 0.172916
vn 0.000000 -0.466911 0.884304
vn 0.000000 -0.466911 0.884304
vn 0.000000 -0.456641 0.889651
vn 0.000000 -0.456641 0.889651
vn 0.986701 0.047024 0.155594
vn 0.986701 0.047024 0.155594
vn 0.981056 0.073251 0.179343
vn 0.978758 0.082501 0.187685
vn 0.000000 0.680651 -0.732608
vn 0.000000 0.680651 -0.732608
vn 0.000000 0.761128 -0.648601
vn 0.000000 0.761128 -0.648601
vn -0.986701 0.047024 0.155594
vn -0.986701 0.047024 0.155594
vn -0.978758 0.082501 0.187685
vn -0.981056 0.073251 0.179343
vn 0.000000 -0.386002 0.922498
vn 0.000000 -0.386002 0.922498
vn 0.892032 0.276071 0.357859
vn 0.892032 0.276071 0.357859
vn 0.000000 0.984745 -0.174003
vn 0.000000 0.984745 -0.174003
vn -0.892032 0.276071 0.357859
vn -0.892032 0.276071 0.357859
vn 0.000000 -0.751721 0.659481
vn 0.000000 -0.751721 0.659481
vn 0.000000 -0.798707 0.601721
vn 0.000000 -0.798707 0.601721
vn 0.997358 0.038613 0.061529
vn 0.997358 0.038613 0.061529
vn 0.999993 -0.001989 -0.003169
vn 0.999993 0.001989 0.003169
vn 0.000000 0.798706 -0.601721
vn 0.000000 0.798706 -0.601721
vn -0.997358 0.038613 0.061529
vn -0.997358 0.038613 0.061529
vn -0.999993 0.001989 0.003169
vn -0.999993 -0.001989 -0.003169
vn -0.992969 -0.001069 0.118367
vn -0.992969 -0.001069 0.118367
vn 0.000000 0.202754 -0.979230
vn 0.000000 0.202754 -0.979230
vn 0.992969 -0.001069 0.118367
vn 0.992969 -0.001069 0.118367
vn 0.000000 -0.129928 0.991523
vn 0.000000 -0.129928 0.991523
vn 0.000000 0.270493 0.962722
vn 0.000000 0.270493 0.962722
vn 0.908915 -0.302718 0.286769
vn 0.906914 -0.307420 0.288098
vn 0.000000 -0.912609 -0.408833
vn 0.000000 -0.912609 -0.408833
vn -0.906914 -0.307420 0.288098
vn -0.908915 -0.302718 0.286769
vn 0.000000 0.399848 0.916581
vn 0.000000 0.399848 0.916581
vn 0.944937 -0.202445 0.257120
vn 0.944937 -0.202445 0.257120
vn 0.000000 -0.878368 -0.477985
vn 0.000000 -0.878368 -0.477985
vn -0.944937 -0.202445 0.257120
vn -0.944937 -0.202445 0.257120
vn 0.000000 -0.035985 0.999352
vn 0.000000 -0.035985 0.999352
vn 0.000000 -0.035985 0.999352
vn 0.608867 0.421669 0.671919
vn 0.608867 0.421669 0.671919
vn 0.608867 0.421669 0.671919
vn 0.000000 0.946475 0.322778
vn 0.000000 0.946475 0.322778
vn 0.000000 0.946475 0.322778
vn -0.608867 0.421670 0.671919
vn -0.608867 0.421670 0.671919
vn -0.608867 0.421670 0.671919
vn -0.997358 -0.038613 -0.061529
vn -0.997358 -0.038613 -0.061529
vn 0.000000 0.751721 -0.659482
vn 0.000000 0.751721 -0.659482
vn 0.997358 -0.038613 -0.061529
vn 0.997358 -0.038613 -0.061529
vn 0.000000 -0.841759 0.539854
vn 0.000000 -0.841759 0.539854
s off
g pasted__pCube11 group
usemtl blinn10SG
f 9/15/1 10/16/2 11/17/3 12/18/4
s 1
usemtl blinn2SG
f 3/3/5 4/4/6 28/37/7 25/32/8
s 2
f 26/34/9 27/35/10 2/10/11 1/9/12
s 3
f 2/2/13 27/36/14 28/38/15 4/4/16
s 4
f 26/33/17 1/1/18 3/3/19 25/31/20
s 5
f 1/1/21 2/2/22 31/41/23 32/42/24
s 6
f 2/2/25 4/4/26 30/40/27 31/41/28
s 7
f 4/4/29 3/3/30 29/39/31 30/40/32
s 8
f 3/3/33 1/1/34 32/42/35 29/39/36
s 9
f 5/5/37 6/6/38 14/20/39 13/19/40
s 10
f 6/6/41 8/8/42 15/21/43 14/20/44
s 11
f 8/8/45 7/7/46 16/22/47 15/21/48
s 12
f 7/7/49 5/5/50 13/19/51 16/22/52
s 9
f 13/19/40 14/20/39 18/24/53 17/23/54
s 10
f 14/20/44 15/21/43 19/25/55 18/24/56
s 11
f 15/21/48 16/22/47 20/26/57 19/25/58
s 12
f 16/22/52 13/19/51 17/23/59 20/26/60
s 13
f 17/23/61 18/24/62 41/51/63 38/48/64
s 14
f 18/24/65 19/25/66 40/50/67 41/51/68
s 11
f 19/25/58 20/26/57 39/49/69 40/50/70
s 15
f 20/26/71 17/23/72 38/48/73 39/49/74
s 4
f 7/13/75 26/33/17 25/31/20 5/14/76
s 2
f 7/7/77 8/8/78 27/35/10 26/34/9
s 3
f 28/38/15 27/36/14 8/11/79 6/12/80
s 1
f 25/32/8 28/37/7 6/6/81 5/5/82
s 7
f 30/40/32 29/39/31 33/43/83 34/44/84
s 6
f 31/41/28 30/40/27 34/44/85 35/45/86
s 5
f 32/42/24 31/41/23 35/45/87 36/46/88
s 8
f 29/39/36 32/42/35 36/46/89 33/43/90
s 7
f 34/44/84 33/43/83 12/18/91 11/17/92
s 6
f 35/45/86 34/44/85 11/17/93 10/16/94
s 5
f 36/46/88 35/45/87 10/16/95 9/15/96
s 8
f 33/43/90 36/46/89 9/15/97 12/18/98
s off
usemtl blinn10SG
f 21/27/99 22/28/100 37/47/101
f 22/28/102 23/29/103 37/47/104
f 23/29/105 24/30/106 37/47/107
f 24/30/108 21/27/109 37/47/110
s 15
f 39/49/74 38/48/73 21/27/111 24/30/112
s 11
f 40/50/70 39/49/69 24/30/113 23/29/114
s 14
f 41/51/68 40/50/67 23/29/115 22/28/116
s 13
f 38/48/64 41/51/63 22/28/117 21/27/118
